<?xml version="1.0" encoding="UTF-8" standalone="no"?><!DOCTYPE svg PUBLIC "-//W3C//DTD SVG 1.1//EN" "http://www.w3.org/Graphics/SVG/1.1/DTD/svg11.dtd"><svg width="100%" height="100%" viewBox="0 0 24 24" version="1.1" xmlns="http://www.w3.org/2000/svg" xmlns:xlink="http://www.w3.org/1999/xlink" xml:space="preserve" xmlns:serif="http://www.serif.com/" style="fill-rule:evenodd;clip-rule:evenodd;stroke-linejoin:round;stroke-miterlimit:1.41421;"><path d="M0,12c0,-6.623 5.377,-12 12,-12c6.623,0 12,5.377 12,12c0,6.623 -5.377,12 -12,12c-6.623,0 -12,-5.377 -12,-12Z" style="fill:url(#_Linear1);"/><path id="user-astronaut" d="M14.055,7.89l-4.11,0c-1.133,0 -2.055,0.922 -2.055,2.055l0,0.514c0,1.984 1.612,3.596 3.596,3.596l1.028,0c1.984,0 3.596,-1.612 3.596,-3.596l0,-0.514c0,-1.133 -0.922,-2.055 -2.055,-2.055Zm1.027,2.569c0,1.416 -1.152,2.568 -2.568,2.568l-1.028,0c-1.416,0 -2.568,-1.152 -2.568,-2.568l0,-0.514c0,-0.565 0.459,-1.027 1.027,-1.027l4.11,0c0.568,0 1.027,0.462 1.027,1.027l0,0.514Zm-4.109,-1.028l-0.386,1.156l-1.156,0.386l1.156,0.385l0.386,1.156l0.385,-1.156l1.156,-0.385l-1.156,-0.386l-0.385,-1.156Zm3.596,7.193l-5.138,0c-0.851,0 -1.541,0.69 -1.541,1.541l0,1.798c0,0.141 0.116,0.257 0.257,0.257l0.514,0c0.141,0 0.257,-0.116 0.257,-0.257l0,-1.798c0,-0.283 0.231,-0.514 0.513,-0.514l5.138,0c0.282,0 0.513,0.231 0.513,0.514l0,1.798c0,0.141 0.116,0.257 0.257,0.257l0.514,0c0.141,0 0.257,-0.116 0.257,-0.257l0,-1.798c0,-0.851 -0.69,-1.541 -1.541,-1.541Zm-1.028,1.541c-0.282,0 -0.514,0.231 -0.514,0.514c0,0.282 0.232,0.513 0.514,0.513c0.283,0 0.514,-0.231 0.514,-0.513c0,-0.283 -0.231,-0.514 -0.514,-0.514Zm-3.082,0c-0.283,0 -0.514,0.231 -0.514,0.514l0,1.284c0,0.141 0.116,0.257 0.257,0.257l0.514,0c0.141,0 0.257,-0.116 0.257,-0.257l0,-1.284c0,-0.283 -0.232,-0.514 -0.514,-0.514Zm5.882,-3.844c0.652,-0.645 1.153,-1.438 1.467,-2.321l0.357,0c0.282,0 0.514,-0.231 0.514,-0.514l0,-3.082c0,-0.283 -0.232,-0.514 -0.514,-0.514l-0.36,0c-0.844,-2.392 -3.121,-4.11 -5.805,-4.11c-2.684,0 -4.961,1.718 -5.805,4.11l-0.36,0c-0.282,0 -0.514,0.231 -0.514,0.514l0,3.082c0,0.283 0.232,0.514 0.514,0.514l0.36,0c0.311,0.883 0.815,1.676 1.467,2.321c-1.663,0.601 -2.854,2.181 -2.854,4.049l0,1.593c0,0.141 0.115,0.257 0.257,0.257l0.513,0c0.142,0 0.257,-0.116 0.257,-0.257l0,-1.593c0,-1.656 1.236,-3.018 2.835,-3.243c0.96,0.62 2.103,0.983 3.33,0.983c1.227,0 2.37,-0.363 3.33,-0.983c1.599,0.222 2.835,1.583 2.835,3.243l0,1.593c0,0.141 0.115,0.257 0.257,0.257l0.513,0c0.142,0 0.257,-0.116 0.257,-0.257l0,-1.593c0,-1.868 -1.191,-3.448 -2.851,-4.049Zm-4.341,0.761c-2.832,0 -5.137,-2.305 -5.137,-5.137c0,-2.832 2.305,-5.137 5.137,-5.137c2.832,0 5.137,2.305 5.137,5.137c0,2.832 -2.305,5.137 -5.137,5.137Z" style="fill:#fff;fill-rule:nonzero;"/><defs><linearGradient id="_Linear1" x1="0" y1="0" x2="1" y2="0" gradientUnits="userSpaceOnUse" gradientTransform="matrix(2.36974e-15,-24,24,2.36974e-15,12,24)"><stop offset="0" style="stop-color:#2bd563;stop-opacity:1"/><stop offset="1" style="stop-color:#0082d5;stop-opacity:1"/></linearGradient></defs></svg>